<svg xmlns="http://www.w3.org/2000/svg" viewBox="0 0 68.99 65.8"><defs><style>.cls-1{fill:#fff;}.cls-2{fill:#ffe600;}.cls-3{fill:#003478;}</style></defs><g id="Layer_2" data-name="Layer 2"><g id="Layer_6" data-name="Layer 6"><polygon class="cls-1" points="20.85 27.52 25.63 34.19 31.02 27.25 20.85 27.52"/><polygon class="cls-2" points="20.39 27.63 11.46 29.57 4.15 38.69 1.4 55.33 49.44 55.33 48.09 50.06 47.06 37.03 41.02 29.82 31.58 27.25 25.98 33.69 20.39 27.63"/><polygon class="cls-1" points="24.65 0.28 14.75 8.35 17.16 19.73 25.49 23.58 26.67 23.57 31.87 21.06 36.81 14.16 34.95 5.11 24.65 0.28"/><path class="cls-3" d="M26.84,24.24a12.18,12.18,0,1,0-2.05,0A9.79,9.79,0,0,0,26.84,24.24ZM16.48,12.17a9.34,9.34,0,1,1,9.33,9.34A9.35,9.35,0,0,1,16.48,12.17Z"/><path class="cls-3" d="M13.59,41.92c-1,2.28-1.95,7.43-2.5,13.41h3.27c.35-5,.85-9.5,1.53-11.62Z"/><path class="cls-3" d="M37.71,41.92c1,2.28,2,7.43,2.51,13.41H37c-.35-5-.85-9.5-1.53-11.62Z"/><path class="cls-3" d="M31.73,28.35a1.28,1.28,0,1,0-2.05-1.52l-3.89,5.28-3.51-4.75a1.28,1.28,0,0,0-2.05,1.53l4.45,6a.86.86,0,0,0,.07.1l0,0,0,0a1.55,1.55,0,0,0,.21.23s.08,0,.11,0a.52.52,0,0,0,.13.06,1.15,1.15,0,0,0,.31.11.81.81,0,0,0,.22,0,.87.87,0,0,0,.23,0,1.15,1.15,0,0,0,.31-.11.52.52,0,0,0,.13-.06s.07,0,.11,0a1.55,1.55,0,0,0,.21-.23l0,0,0,0a.86.86,0,0,0,.07-.1Z"/><path class="cls-3" d="M48.52,41.08a24.83,24.83,0,0,0-2.4-7.18,14.46,14.46,0,0,0-7.31-6.57,19.55,19.55,0,0,0-8.15-1.27H20.6a19.53,19.53,0,0,0-8.14,1.27A14.42,14.42,0,0,0,5.15,33.9a24.52,24.52,0,0,0-2.4,7.18C2.52,42.13,0,55.33,0,55.33H2.79L4.4,47c.39-2.06,1.29-7.73,2.43-10.31a12.23,12.23,0,0,1,5.55-6.27,15.64,15.64,0,0,1,7-1.63h12.4a15.68,15.68,0,0,1,7.06,1.63,12.17,12.17,0,0,1,5.54,6.27c1.15,2.58,2,8.25,2.44,10.31s1.6,8.33,1.6,8.33h2.8S48.74,42.13,48.52,41.08Z"/><circle class="cls-1" cx="49.24" cy="46.31" r="18.61"/><path class="cls-3" d="M49.24,26.28A19.76,19.76,0,1,0,69,46,19.76,19.76,0,0,0,49.24,26.28Zm0,36.73a17,17,0,1,1,17-17A17,17,0,0,1,49.24,63Z"/><path class="cls-3" d="M49.35,50.29,44.89,45a6,6,0,0,0-4.81-2.37H34.21a14,14,0,0,1,3,2.83l5.16,6.14c1.67,2,3.9,2.76,6.88,2.76a8.87,8.87,0,0,0,5.81-1.72A6.13,6.13,0,0,1,49.35,50.29Z"/><path class="cls-2" d="M55.84,49.87c-.77,1-2.48.34-2.87.15s-1.29-.75-1.29-.75,1.27-1.54,2-2.41A13.48,13.48,0,0,1,56.64,44c1.17-.7,4.44-.42,4.44-.42S56.62,48.91,55.84,49.87Z"/><path class="cls-2" d="M58.54,42.61a5.82,5.82,0,0,0-4.69,2.32l-3.49,4.13c1.72,2,5.07,3.26,6.64,1.39l4.29-5.07a13.78,13.78,0,0,1,3-2.77Zm-2.63,7c-.71.9-2.29.32-2.66.14s-1.19-.7-1.19-.7,1.17-1.42,1.87-2.23a12.65,12.65,0,0,1,2.72-2.63c1.09-.65,4.12-.38,4.12-.38S56.63,48.77,55.91,49.66Z"/><path class="cls-3" d="M48,50.93s-3.16-3.77-4.69-5.55c-1.76-2-3.53-1.48-5.54-1.55,2.12,2.44,3.65,4.23,5.76,6.87,1.89,2.36,5.22,2.24,6.54,2.24A12,12,0,0,1,48,50.93Z"/></g></g></svg>